<mxfile host="app.diagrams.net" modified="2021-09-16T13:46:19.169Z" agent="5.0 (Windows NT 10.0; Win64; x64) AppleWebKit/537.36 (KHTML, like Gecko) Chrome/93.0.4577.82 Safari/537.36" etag="owQle0K623bvixZ1YdZI" version="15.2.7" type="github">
  <diagram id="C5RBs43oDa-KdzZeNtuy" name="Page-1">
    <mxGraphModel dx="700" dy="382" grid="1" gridSize="10" guides="1" tooltips="1" connect="1" arrows="1" fold="1" page="1" pageScale="1" pageWidth="827" pageHeight="1169" background="#ffffff" math="0" shadow="0">
      <root>
        <mxCell id="WIyWlLk6GJQsqaUBKTNV-0" />
        <mxCell id="WIyWlLk6GJQsqaUBKTNV-1" parent="WIyWlLk6GJQsqaUBKTNV-0" />
        <mxCell id="wCUO4k8cAmJfjX0eeGJR-2" value="" style="edgeStyle=orthogonalEdgeStyle;rounded=0;orthogonalLoop=1;jettySize=auto;html=1;" edge="1" parent="WIyWlLk6GJQsqaUBKTNV-1" source="wCUO4k8cAmJfjX0eeGJR-0" target="wCUO4k8cAmJfjX0eeGJR-1">
          <mxGeometry relative="1" as="geometry" />
        </mxCell>
        <mxCell id="wCUO4k8cAmJfjX0eeGJR-0" value="&lt;b&gt;Mulai&lt;/b&gt;" style="ellipse;whiteSpace=wrap;html=1;" vertex="1" parent="WIyWlLk6GJQsqaUBKTNV-1">
          <mxGeometry x="100" y="80" width="120" height="80" as="geometry" />
        </mxCell>
        <mxCell id="wCUO4k8cAmJfjX0eeGJR-4" value="" style="edgeStyle=orthogonalEdgeStyle;rounded=0;orthogonalLoop=1;jettySize=auto;html=1;" edge="1" parent="WIyWlLk6GJQsqaUBKTNV-1" source="wCUO4k8cAmJfjX0eeGJR-1" target="wCUO4k8cAmJfjX0eeGJR-3">
          <mxGeometry relative="1" as="geometry" />
        </mxCell>
        <mxCell id="wCUO4k8cAmJfjX0eeGJR-1" value="input angka" style="shape=parallelogram;perimeter=parallelogramPerimeter;whiteSpace=wrap;html=1;fixedSize=1;" vertex="1" parent="WIyWlLk6GJQsqaUBKTNV-1">
          <mxGeometry x="310" y="85" width="140" height="70" as="geometry" />
        </mxCell>
        <mxCell id="wCUO4k8cAmJfjX0eeGJR-6" value="" style="edgeStyle=orthogonalEdgeStyle;rounded=0;orthogonalLoop=1;jettySize=auto;html=1;" edge="1" parent="WIyWlLk6GJQsqaUBKTNV-1" source="wCUO4k8cAmJfjX0eeGJR-3" target="wCUO4k8cAmJfjX0eeGJR-5">
          <mxGeometry relative="1" as="geometry" />
        </mxCell>
        <mxCell id="wCUO4k8cAmJfjX0eeGJR-3" value="num = angka.toString().split(0)" style="whiteSpace=wrap;html=1;" vertex="1" parent="WIyWlLk6GJQsqaUBKTNV-1">
          <mxGeometry x="310" y="240" width="140" height="70" as="geometry" />
        </mxCell>
        <mxCell id="wCUO4k8cAmJfjX0eeGJR-9" value="" style="edgeStyle=orthogonalEdgeStyle;rounded=0;orthogonalLoop=1;jettySize=auto;html=1;" edge="1" parent="WIyWlLk6GJQsqaUBKTNV-1" source="wCUO4k8cAmJfjX0eeGJR-5" target="wCUO4k8cAmJfjX0eeGJR-8">
          <mxGeometry relative="1" as="geometry" />
        </mxCell>
        <mxCell id="wCUO4k8cAmJfjX0eeGJR-5" value="devide = [...num]&lt;br&gt;.map(value =&amp;gt; value)" style="whiteSpace=wrap;html=1;" vertex="1" parent="WIyWlLk6GJQsqaUBKTNV-1">
          <mxGeometry x="310" y="390" width="140" height="70" as="geometry" />
        </mxCell>
        <mxCell id="wCUO4k8cAmJfjX0eeGJR-11" value="" style="edgeStyle=orthogonalEdgeStyle;rounded=0;orthogonalLoop=1;jettySize=auto;html=1;" edge="1" parent="WIyWlLk6GJQsqaUBKTNV-1" source="wCUO4k8cAmJfjX0eeGJR-8" target="wCUO4k8cAmJfjX0eeGJR-10">
          <mxGeometry relative="1" as="geometry" />
        </mxCell>
        <mxCell id="wCUO4k8cAmJfjX0eeGJR-8" value="idx1 = devide[0].split(&quot;&quot;).sort().join()" style="whiteSpace=wrap;html=1;" vertex="1" parent="WIyWlLk6GJQsqaUBKTNV-1">
          <mxGeometry x="295" y="542" width="170" height="85" as="geometry" />
        </mxCell>
        <mxCell id="wCUO4k8cAmJfjX0eeGJR-13" value="" style="edgeStyle=orthogonalEdgeStyle;rounded=0;orthogonalLoop=1;jettySize=auto;html=1;" edge="1" parent="WIyWlLk6GJQsqaUBKTNV-1" source="wCUO4k8cAmJfjX0eeGJR-10" target="wCUO4k8cAmJfjX0eeGJR-12">
          <mxGeometry relative="1" as="geometry" />
        </mxCell>
        <mxCell id="wCUO4k8cAmJfjX0eeGJR-10" value="idx2 = devide[0].split(&quot;&quot;).sort().join()" style="whiteSpace=wrap;html=1;" vertex="1" parent="WIyWlLk6GJQsqaUBKTNV-1">
          <mxGeometry x="295" y="710" width="170" height="85" as="geometry" />
        </mxCell>
        <mxCell id="wCUO4k8cAmJfjX0eeGJR-15" value="" style="edgeStyle=orthogonalEdgeStyle;rounded=0;orthogonalLoop=1;jettySize=auto;html=1;" edge="1" parent="WIyWlLk6GJQsqaUBKTNV-1" source="wCUO4k8cAmJfjX0eeGJR-12" target="wCUO4k8cAmJfjX0eeGJR-14">
          <mxGeometry relative="1" as="geometry" />
        </mxCell>
        <mxCell id="wCUO4k8cAmJfjX0eeGJR-12" value="idx3 = devide[0].split(&quot;&quot;).sort().join()" style="whiteSpace=wrap;html=1;" vertex="1" parent="WIyWlLk6GJQsqaUBKTNV-1">
          <mxGeometry x="295" y="860" width="170" height="85" as="geometry" />
        </mxCell>
        <mxCell id="wCUO4k8cAmJfjX0eeGJR-17" value="" style="edgeStyle=orthogonalEdgeStyle;rounded=0;orthogonalLoop=1;jettySize=auto;html=1;" edge="1" parent="WIyWlLk6GJQsqaUBKTNV-1" source="wCUO4k8cAmJfjX0eeGJR-14">
          <mxGeometry relative="1" as="geometry">
            <mxPoint x="379.9999999999999" y="1200" as="targetPoint" />
          </mxGeometry>
        </mxCell>
        <mxCell id="wCUO4k8cAmJfjX0eeGJR-14" value="results = `${idx1}${idx2}${idx3}&lt;br&gt;`" style="whiteSpace=wrap;html=1;" vertex="1" parent="WIyWlLk6GJQsqaUBKTNV-1">
          <mxGeometry x="307.5" y="1037.5" width="145" height="72.5" as="geometry" />
        </mxCell>
        <mxCell id="wCUO4k8cAmJfjX0eeGJR-20" value="" style="edgeStyle=orthogonalEdgeStyle;rounded=0;orthogonalLoop=1;jettySize=auto;html=1;" edge="1" parent="WIyWlLk6GJQsqaUBKTNV-1" source="wCUO4k8cAmJfjX0eeGJR-18">
          <mxGeometry relative="1" as="geometry">
            <mxPoint x="540" y="1270" as="targetPoint" />
          </mxGeometry>
        </mxCell>
        <mxCell id="wCUO4k8cAmJfjX0eeGJR-24" value="TRUE" style="edgeLabel;html=1;align=center;verticalAlign=middle;resizable=0;points=[];" vertex="1" connectable="0" parent="wCUO4k8cAmJfjX0eeGJR-20">
          <mxGeometry x="-0.1185" relative="1" as="geometry">
            <mxPoint as="offset" />
          </mxGeometry>
        </mxCell>
        <mxCell id="wCUO4k8cAmJfjX0eeGJR-23" value="" style="edgeStyle=orthogonalEdgeStyle;rounded=0;orthogonalLoop=1;jettySize=auto;html=1;" edge="1" parent="WIyWlLk6GJQsqaUBKTNV-1" source="wCUO4k8cAmJfjX0eeGJR-18" target="wCUO4k8cAmJfjX0eeGJR-22">
          <mxGeometry relative="1" as="geometry" />
        </mxCell>
        <mxCell id="wCUO4k8cAmJfjX0eeGJR-25" value="FALSE" style="edgeLabel;html=1;align=center;verticalAlign=middle;resizable=0;points=[];" vertex="1" connectable="0" parent="wCUO4k8cAmJfjX0eeGJR-23">
          <mxGeometry x="-0.3486" relative="1" as="geometry">
            <mxPoint as="offset" />
          </mxGeometry>
        </mxCell>
        <mxCell id="wCUO4k8cAmJfjX0eeGJR-18" value="angka&amp;nbsp;&lt;br&gt;!==&lt;br&gt;&quot;number&quot;&lt;br&gt;" style="rhombus;whiteSpace=wrap;html=1;" vertex="1" parent="WIyWlLk6GJQsqaUBKTNV-1">
          <mxGeometry x="310" y="1200" width="140" height="140" as="geometry" />
        </mxCell>
        <mxCell id="wCUO4k8cAmJfjX0eeGJR-29" style="edgeStyle=orthogonalEdgeStyle;rounded=0;orthogonalLoop=1;jettySize=auto;html=1;" edge="1" parent="WIyWlLk6GJQsqaUBKTNV-1" source="wCUO4k8cAmJfjX0eeGJR-21" target="wCUO4k8cAmJfjX0eeGJR-28">
          <mxGeometry relative="1" as="geometry" />
        </mxCell>
        <mxCell id="wCUO4k8cAmJfjX0eeGJR-21" value="&lt;span&gt;&quot;input harus berupa number...&quot;&lt;/span&gt;" style="shape=parallelogram;perimeter=parallelogramPerimeter;whiteSpace=wrap;html=1;fixedSize=1;" vertex="1" parent="WIyWlLk6GJQsqaUBKTNV-1">
          <mxGeometry x="530" y="1235" width="140" height="70" as="geometry" />
        </mxCell>
        <mxCell id="wCUO4k8cAmJfjX0eeGJR-26" style="edgeStyle=orthogonalEdgeStyle;rounded=0;orthogonalLoop=1;jettySize=auto;html=1;" edge="1" parent="WIyWlLk6GJQsqaUBKTNV-1" source="wCUO4k8cAmJfjX0eeGJR-22">
          <mxGeometry relative="1" as="geometry">
            <mxPoint x="540" y="1450" as="targetPoint" />
          </mxGeometry>
        </mxCell>
        <mxCell id="wCUO4k8cAmJfjX0eeGJR-22" value="parseInt(results)" style="shape=parallelogram;perimeter=parallelogramPerimeter;whiteSpace=wrap;html=1;fixedSize=1;" vertex="1" parent="WIyWlLk6GJQsqaUBKTNV-1">
          <mxGeometry x="320" y="1420" width="120" height="60" as="geometry" />
        </mxCell>
        <mxCell id="wCUO4k8cAmJfjX0eeGJR-28" value="&lt;b&gt;Selesai&lt;/b&gt;" style="ellipse;whiteSpace=wrap;html=1;" vertex="1" parent="WIyWlLk6GJQsqaUBKTNV-1">
          <mxGeometry x="540" y="1410" width="120" height="80" as="geometry" />
        </mxCell>
      </root>
    </mxGraphModel>
  </diagram>
</mxfile>
